<svg width="24" height="26" viewBox="0 0 24 26" fill="none" xmlns="http://www.w3.org/2000/svg">
<g clip-path="url(#clip0_12_293)">
<g clip-path="url(#clip1_12_293)">
<mask id="mask0_12_293" style="mask-type:luminance" maskUnits="userSpaceOnUse" x="0" y="0" width="24" height="25">
<path d="M24 0.416504H0V24.4165H24V0.416504Z" fill="white"/>
</mask>
<g mask="url(#mask0_12_293)">
<path d="M12 24.4165C18.6274 24.4165 24 19.0439 24 12.4165C24 5.78908 18.6274 0.416504 12 0.416504C5.37258 0.416504 0 5.78908 0 12.4165C0 19.0439 5.37258 24.4165 12 24.4165Z" fill="#007AB9"/>
<path d="M19.1698 13.3821V18.3294H16.3014V13.7136C16.3014 12.5547 15.8873 11.7632 14.8488 11.7632C14.0562 11.7632 13.5854 12.296 13.3775 12.812C13.302 12.9964 13.2825 13.2524 13.2825 13.5111V18.3292H10.4139C10.4139 18.3292 10.4525 10.5116 10.4139 9.70239H13.2827V10.9249C13.2769 10.9345 13.2688 10.9439 13.2637 10.9531H13.2827V10.9249C13.6639 10.3383 14.3437 9.49982 15.8678 9.49982C17.755 9.49982 19.1698 10.7328 19.1698 13.3821ZM7.4132 5.54395C6.43199 5.54395 5.79004 6.18804 5.79004 7.03427C5.79004 7.86254 6.41338 8.52524 7.37555 8.52524H7.39416C8.39462 8.52524 9.01668 7.86254 9.01668 7.03427C8.99764 6.18804 8.39462 5.54395 7.4132 5.54395ZM5.96053 18.3294H8.82801V9.70239H5.96053V18.3294Z" fill="#F1F2F2"/>
</g>
</g>
</g>
<defs>
<clipPath id="clip0_12_293">
<rect width="24" height="25" fill="white" transform="translate(0 0.25)"/>
</clipPath>
<clipPath id="clip1_12_293">
<rect width="24" height="25" fill="white" transform="translate(0 0.25)"/>
</clipPath>
</defs>
</svg>
