<svg width="24" height="26" viewBox="0 0 24 26" fill="none" xmlns="http://www.w3.org/2000/svg">
<g clip-path="url(#clip0_12_265)">
<g clip-path="url(#clip1_12_265)">
<g clip-path="url(#clip2_12_265)">
<path d="M24 12.2763C24 5.64895 18.6274 0.276367 12 0.276367C5.37258 0.276367 0 5.64895 0 12.2763C0 18.9037 5.37258 24.2763 12 24.2763C18.6274 24.2763 24 18.9037 24 12.2763Z" fill="#00D95F"/>
<path d="M6 17.8319L6.86098 14.6306C6.16663 13.3835 5.94603 11.9283 6.23965 10.532C6.53328 9.13566 7.32144 7.89186 8.45951 7.02884C9.59757 6.16584 11.0092 5.7415 12.4354 5.83368C13.8615 5.92587 15.2066 6.52843 16.2237 7.53077C17.2407 8.53311 17.8617 9.868 17.9725 11.2904C18.0832 12.7129 17.6765 14.1276 16.8268 15.2749C15.9772 16.4221 14.7416 17.225 13.3469 17.5362C11.9521 17.8474 10.4918 17.646 9.23375 16.969L6 17.8319ZM9.38966 15.771L9.58965 15.8895C10.5009 16.4287 11.5651 16.6518 12.6166 16.5241C13.6681 16.3964 14.6478 15.925 15.4029 15.1834C16.158 14.4418 16.6462 13.4717 16.7914 12.4242C16.9366 11.3767 16.7306 10.3106 16.2056 9.39222C15.6805 8.47379 14.8659 7.75454 13.8887 7.34655C12.9114 6.93859 11.8265 6.8648 10.8028 7.13672C9.77919 7.40862 8.87441 8.01097 8.22947 8.84985C7.58453 9.68873 7.23565 10.717 7.23722 11.7745C7.23638 12.6513 7.47926 13.5112 7.93889 14.2584L8.06431 14.4648L7.58298 16.2516L9.38966 15.771Z" fill="white"/>
<path fill-rule="evenodd" clip-rule="evenodd" d="M14.2437 12.5966C14.1265 12.5021 13.9892 12.4357 13.8423 12.4023C13.6955 12.3689 13.543 12.3693 13.3963 12.4037C13.176 12.495 13.0336 12.8402 12.8912 13.0128C12.8612 13.0542 12.8171 13.0832 12.7672 13.0944C12.7173 13.1056 12.665 13.0983 12.6201 13.0737C11.8134 12.7583 11.1373 12.1799 10.7015 11.4324C10.6643 11.3858 10.6468 11.3266 10.6524 11.2673C10.6582 11.2079 10.6867 11.1531 10.732 11.1143C10.8908 10.9574 11.0074 10.763 11.071 10.5492C11.0851 10.3134 11.031 10.0784 10.9151 9.87242C10.8255 9.58361 10.6549 9.32645 10.4236 9.13133C10.3043 9.07775 10.172 9.0598 10.0427 9.07961C9.91335 9.09943 9.79254 9.15615 9.6948 9.24299C9.52513 9.38912 9.39048 9.5714 9.30073 9.77638C9.21095 9.98138 9.16841 10.2038 9.1762 10.4274C9.1767 10.5529 9.19266 10.678 9.22364 10.7996C9.30235 11.092 9.4234 11.3713 9.58295 11.6287C9.69805 11.8259 9.82365 12.0168 9.9592 12.2006C10.3997 12.8043 10.9534 13.3169 11.5896 13.7099C11.9089 13.9096 12.2501 14.072 12.6065 14.1938C12.9768 14.3614 13.3856 14.4257 13.7895 14.3799C14.0196 14.3452 14.2377 14.2545 14.4245 14.1158C14.6113 13.9771 14.761 13.7947 14.8606 13.5847C14.9192 13.4578 14.9369 13.316 14.9115 13.1786C14.8505 12.8977 14.4742 12.7319 14.2437 12.5966Z" fill="white"/>
</g>
</g>
</g>
<defs>
<clipPath id="clip0_12_265">
<rect width="24" height="25" fill="white" transform="translate(0 0.109863)"/>
</clipPath>
<clipPath id="clip1_12_265">
<rect width="24" height="25" fill="white" transform="translate(0 0.109863)"/>
</clipPath>
<clipPath id="clip2_12_265">
<rect width="24" height="25" fill="white" transform="translate(0 0.109863)"/>
</clipPath>
</defs>
</svg>
